<?xml version="1.0" standalone="no"?>
<!DOCTYPE svg PUBLIC "-//W3C//DTD SVG 20010904//EN"
 "http://www.w3.org/TR/2001/REC-SVG-20010904/DTD/svg10.dtd">
<svg version="1.0" xmlns="http://www.w3.org/2000/svg"
 width="800.000000pt" height="800.000000pt" viewBox="0 0 800.000000 800.000000"
 preserveAspectRatio="xMidYMid meet">
<metadata>
Created by potrace 1.11, written by Peter Selinger 2001-2013
</metadata>
<g transform="translate(0.000000,800.000000) scale(0.100000,-0.100000)"
fill="#000000" stroke="none">
<path d="M1626 7184 c-3 -8 -10 -12 -16 -9 -5 3 -10 1 -10 -5 0 -7 -7 -9 -16
-6 -12 4 -15 2 -10 -9 3 -9 0 -15 -9 -15 -8 0 -15 -5 -15 -11 0 -6 -7 -9 -14
-6 -11 4 -13 1 -9 -11 3 -9 3 -14 -1 -10 -8 6 -23 -4 -74 -49 -14 -13 -29 -23
-33 -23 -5 0 -9 -7 -9 -16 0 -8 -4 -12 -10 -9 -5 3 -10 -1 -10 -9 0 -9 -4 -15
-9 -13 -5 1 -17 -7 -26 -18 -9 -11 -13 -14 -9 -6 5 10 3 12 -5 7 -7 -5 -10
-15 -7 -23 3 -8 1 -11 -4 -8 -6 3 -10 1 -10 -4 0 -6 -6 -10 -12 -8 -7 1 -12
-4 -10 -10 1 -7 -5 -13 -13 -13 -8 0 -15 -7 -15 -16 0 -8 -3 -13 -7 -11 -11 6
-43 -30 -35 -39 4 -5 -1 -2 -10 5 -15 11 -17 10 -13 -8 2 -12 0 -21 -5 -21
-15 0 -49 -33 -44 -42 3 -4 1 -8 -5 -8 -17 0 -63 -49 -56 -60 3 -6 1 -9 -7 -8
-7 2 -12 -4 -10 -12 2 -8 0 -12 -3 -8 -4 4 -19 -6 -33 -22 -15 -17 -33 -30
-42 -31 -10 0 -11 -2 -2 -6 6 -2 12 -9 12 -14 0 -4 -7 -6 -15 -2 -9 3 -15 2
-14 -3 4 -21 -2 -35 -11 -29 -9 6 -15 -8 -11 -29 1 -5 -5 -3 -14 4 -9 7 -15 9
-14 4 4 -23 -2 -45 -11 -39 -5 3 -10 -1 -10 -9 0 -9 -4 -16 -10 -16 -5 0 -10
-7 -10 -16 0 -10 -6 -14 -14 -11 -10 4 -13 1 -10 -7 3 -8 0 -17 -7 -22 -8 -5
-10 -3 -4 6 5 8 4 11 -3 6 -6 -4 -8 -14 -5 -23 5 -12 3 -14 -7 -8 -10 6 -12 4
-7 -8 4 -10 -1 -18 -14 -22 -17 -6 -23 -17 -20 -37 0 -5 -6 -8 -15 -8 -10 0
-14 -6 -10 -15 3 -10 -1 -15 -11 -15 -9 0 -13 -3 -10 -7 4 -3 -1 -12 -11 -20
-11 -10 -12 -12 -2 -8 8 4 6 -1 -5 -10 -11 -9 -19 -23 -17 -31 2 -8 -1 -14 -5
-13 -20 3 -24 -2 -13 -16 11 -13 10 -14 -4 -9 -11 4 -16 1 -16 -11 0 -9 -4
-14 -9 -11 -5 4 -12 -7 -16 -24 -4 -16 -10 -30 -15 -30 -10 0 -25 -40 -21 -54
1 -5 -5 -3 -14 4 -13 11 -15 10 -9 -4 3 -9 1 -16 -5 -16 -6 0 -8 -7 -5 -15 4
-8 -1 -17 -9 -21 -9 -3 -18 -12 -21 -20 -4 -10 -1 -13 7 -9 6 4 3 -2 -8 -12
-11 -10 -21 -25 -23 -33 -2 -8 -9 -18 -15 -22 -6 -4 -8 -10 -4 -14 4 -4 -2
-13 -12 -21 -11 -7 -18 -20 -17 -30 2 -9 -6 -25 -16 -35 -11 -11 -17 -25 -15
-32 3 -7 -3 -19 -12 -26 -11 -7 -17 -22 -15 -37 2 -16 -2 -23 -10 -20 -7 3
-13 0 -13 -6 0 -7 -4 -21 -9 -31 -5 -15 -4 -17 6 -11 9 5 11 4 6 -4 -4 -6 -12
-9 -17 -6 -9 6 -13 -8 -10 -34 2 -8 -2 -10 -10 -5 -9 5 -10 2 -6 -9 3 -9 -1
-23 -9 -32 -8 -8 -13 -19 -9 -24 3 -6 -3 -15 -14 -21 -17 -8 -19 -15 -11 -35
8 -20 7 -23 -7 -18 -11 4 -14 3 -9 -5 4 -7 2 -12 -6 -12 -10 0 -10 -2 1 -9 11
-7 10 -13 -3 -33 -9 -14 -13 -29 -9 -33 5 -5 1 -4 -7 2 -13 10 -16 8 -16 -7 0
-10 3 -17 6 -15 4 2 7 -2 7 -10 0 -8 -5 -11 -10 -8 -6 4 -8 -3 -4 -16 3 -13 3
-20 0 -17 -8 8 -34 -44 -27 -55 3 -5 1 -9 -4 -9 -6 0 -8 -10 -4 -22 3 -13 1
-19 -6 -15 -6 5 -9 -2 -7 -18 1 -14 -2 -25 -6 -25 -5 0 -9 -7 -9 -16 0 -9 5
-12 13 -8 9 5 9 3 -1 -7 -11 -12 -14 -12 -22 1 -5 9 -6 -2 -3 -30 5 -33 3 -41
-6 -35 -10 6 -11 3 -2 -14 10 -17 9 -20 -4 -15 -11 5 -13 2 -9 -10 3 -9 2 -22
-4 -29 -5 -6 -6 -21 -2 -32 5 -14 1 -27 -14 -44 -11 -13 -14 -20 -6 -16 12 7
13 6 4 -6 -6 -8 -10 -24 -9 -37 1 -13 -3 -21 -9 -19 -6 3 -11 -6 -11 -19 0
-13 5 -24 10 -24 6 0 5 -3 -1 -8 -6 -4 -14 -31 -17 -61 -4 -30 -11 -59 -16
-64 -7 -7 -6 -16 2 -26 8 -10 8 -13 0 -8 -18 11 -21 -16 -4 -43 9 -13 11 -21
5 -17 -7 4 -14 0 -18 -8 -3 -8 -1 -17 5 -20 5 -4 6 -12 2 -18 -13 -21 -13 -80
0 -96 6 -8 7 -12 2 -9 -6 4 -18 0 -28 -7 -16 -11 -16 -13 -2 -19 12 -4 14 -10
5 -25 -13 -26 -13 -34 2 -25 9 5 9 2 -1 -9 -11 -14 -11 -20 0 -34 10 -11 10
-14 1 -9 -8 5 -12 -1 -12 -18 0 -14 5 -26 12 -26 6 0 3 -7 -8 -15 -15 -11 -16
-15 -4 -15 10 -1 9 -4 -5 -10 l-20 -9 20 0 c17 -1 17 -3 5 -11 -10 -6 -11 -10
-2 -10 6 0 12 -5 12 -11 0 -6 -7 -9 -14 -6 -10 4 -13 1 -9 -8 3 -8 8 -13 12
-10 4 2 8 -2 8 -10 0 -8 -5 -15 -11 -15 -6 0 -4 -5 4 -10 8 -5 10 -10 5 -10
-6 0 -10 -16 -9 -35 1 -21 -3 -35 -10 -35 -6 0 -5 -4 3 -9 12 -8 13 -14 3 -35
-6 -14 -8 -26 -3 -26 5 0 11 6 14 13 2 6 4 -3 3 -21 -1 -20 -5 -31 -13 -28 -7
3 -10 -1 -6 -9 3 -8 8 -13 12 -10 4 2 8 -2 8 -10 0 -8 -4 -15 -9 -15 -4 0 -8
-5 -8 -11 0 -5 3 -8 8 -5 4 2 6 -19 5 -47 -2 -33 1 -53 9 -59 7 -4 8 -8 3 -8
-6 0 -11 -9 -12 -20 -1 -11 2 -18 8 -15 5 4 5 -4 -1 -19 -6 -17 -6 -26 1 -26
6 0 6 -6 -1 -19 -13 -25 -13 -41 0 -21 8 12 10 10 11 -10 1 -14 1 -29 0 -34
-1 -5 4 -13 11 -17 8 -5 9 -9 2 -9 -6 0 -10 -10 -9 -22 1 -13 3 -23 4 -23 2 0
4 -8 6 -17 2 -10 -1 -18 -6 -18 -6 0 -7 -5 -4 -10 4 -6 10 -8 15 -5 4 3 4 -11
0 -30 -7 -32 -5 -38 11 -37 3 1 6 -5 6 -13 0 -8 -4 -12 -9 -9 -4 3 -8 0 -8 -5
0 -6 4 -11 9 -11 4 0 8 -15 8 -34 -1 -19 5 -41 12 -49 9 -12 9 -17 0 -23 -8
-5 -9 -3 -4 6 6 9 4 11 -5 5 -10 -6 -9 -11 5 -21 11 -8 15 -19 11 -30 -3 -9
-1 -23 5 -30 6 -8 9 -21 5 -29 -3 -8 -1 -15 4 -15 6 0 9 -3 9 -7 -4 -22 2 -33
14 -27 7 5 6 0 -3 -11 -12 -14 -12 -19 -2 -23 10 -3 10 -7 0 -20 -11 -13 -11
-14 1 -7 11 6 13 3 9 -13 -4 -12 -2 -20 3 -16 5 3 9 2 10 -3 0 -4 2 -17 4 -28
1 -11 4 -34 6 -52 2 -17 7 -29 11 -27 7 5 13 -26 9 -48 0 -5 4 -8 9 -8 7 0 7
-6 0 -20 -8 -16 -8 -18 4 -14 11 4 13 0 9 -17 -5 -16 -3 -20 6 -15 8 5 12 3
10 -5 -3 -25 1 -40 9 -35 5 3 8 -11 7 -30 0 -26 3 -33 14 -29 11 4 12 3 1 -10
-10 -12 -10 -15 3 -15 11 0 13 -6 9 -22 -4 -16 -2 -19 9 -13 12 8 12 6 0 -8
-11 -13 -11 -17 -1 -17 8 0 10 -3 7 -7 -4 -3 1 -12 11 -20 9 -8 12 -12 5 -9
-8 5 -8 0 0 -19 7 -14 16 -25 20 -25 5 0 5 -5 2 -10 -3 -5 0 -10 7 -10 9 0 9
-3 -2 -10 -12 -8 -12 -10 5 -10 17 0 17 -2 5 -10 -10 -6 -11 -10 -2 -10 6 0
12 -9 12 -20 0 -11 5 -20 11 -20 5 0 7 -4 4 -10 -3 -6 -2 -10 4 -10 6 0 8 -6
5 -13 -2 -7 5 -23 16 -35 12 -12 15 -22 9 -22 -7 0 -3 -8 9 -18 17 -15 19 -21
9 -31 -9 -10 -8 -11 5 -6 13 5 16 2 13 -14 -2 -12 0 -21 6 -21 5 0 9 -7 9 -15
0 -9 6 -18 14 -21 8 -3 13 -11 10 -18 -2 -6 5 -22 16 -34 12 -12 22 -31 23
-42 1 -11 5 -20 9 -20 4 0 8 -7 8 -15 0 -8 5 -15 10 -15 6 0 10 -9 10 -21 0
-12 4 -18 11 -13 7 4 10 1 7 -7 -2 -7 6 -23 18 -34 18 -17 21 -24 12 -33 -9
-9 -8 -12 4 -12 9 0 20 -5 24 -12 5 -7 2 -9 -7 -4 -8 4 -3 -2 10 -13 13 -12
19 -21 15 -21 -5 0 -2 -6 6 -13 8 -7 21 -24 29 -39 8 -15 23 -37 33 -48 10
-11 15 -20 11 -20 -4 0 1 -7 11 -15 14 -11 16 -15 5 -15 -12 0 -12 -2 1 -9 8
-6 18 -7 22 -5 4 3 5 -3 1 -12 -5 -14 -3 -16 12 -11 14 6 15 4 7 -5 -11 -14
10 -43 22 -31 3 4 6 -2 6 -13 1 -27 26 -59 33 -42 3 7 6 5 6 -7 1 -11 13 -31
29 -45 15 -14 23 -23 17 -20 -6 3 -2 -3 8 -12 11 -10 16 -18 13 -18 -4 0 -1
-6 6 -14 7 -8 16 -12 21 -9 4 2 7 -3 7 -11 0 -9 5 -16 12 -16 6 0 8 -3 5 -6
-4 -4 3 -15 14 -25 13 -11 18 -23 13 -31 -5 -9 -1 -8 11 2 10 8 16 11 13 5 -3
-5 4 -19 15 -30 11 -11 16 -14 12 -6 -5 9 -4 12 3 7 6 -4 8 -14 5 -23 -4 -11
-3 -14 5 -9 7 4 12 1 12 -8 0 -9 8 -16 17 -16 9 0 14 -3 10 -6 -7 -8 36 -53
46 -47 7 4 11 -13 7 -32 -1 -5 1 -7 5 -4 3 4 38 -24 76 -62 39 -38 75 -67 80
-64 5 4 6 -2 2 -11 -4 -12 -3 -15 5 -10 7 4 12 2 12 -4 0 -6 5 -8 10 -5 6 4 9
1 8 -7 -2 -7 3 -12 10 -10 8 1 11 -2 7 -8 -3 -5 -1 -10 5 -10 6 0 8 -4 5 -10
-3 -5 4 -10 15 -10 15 0 20 -5 17 -14 -3 -8 1 -13 11 -12 9 0 16 -5 14 -12 -1
-8 2 -11 8 -7 5 3 10 1 10 -5 0 -6 4 -8 10 -5 5 3 10 -1 10 -10 0 -9 5 -13 10
-10 5 3 10 2 10 -4 0 -5 9 -13 20 -16 11 -3 20 -14 20 -22 0 -9 3 -14 6 -10 4
3 14 -2 23 -11 9 -10 14 -13 11 -7 -3 6 3 2 13 -8 9 -11 17 -16 17 -12 0 5 8
-2 19 -13 10 -12 21 -19 25 -15 3 3 6 1 6 -5 0 -9 559 -11 2338 -10 1863 2
2336 6 2334 15 -1 7 5 13 13 13 8 0 15 5 15 11 0 6 6 9 12 7 15 -5 42 19 51
45 4 10 11 16 16 12 5 -3 21 6 35 20 14 14 26 22 26 18 0 -4 13 7 29 24 15 18
31 30 34 27 3 -3 8 4 12 17 6 17 9 19 16 8 7 -11 9 -10 9 4 0 9 5 17 11 17 5
0 7 5 4 10 -4 6 -3 9 2 8 4 -2 19 5 33 15 13 9 21 17 17 17 -12 0 15 25 36 33
10 4 15 11 12 17 -3 5 -1 10 5 10 14 0 90 75 90 90 0 9 14 14 33 11 4 0 6 2 6
6 -3 18 1 36 7 30 8 -7 34 17 34 32 0 6 7 11 16 11 8 0 12 5 9 10 -3 6 -1 10
5 10 6 0 8 5 5 10 -4 6 -3 10 2 9 23 -4 35 2 29 16 -3 9 0 15 9 15 7 0 17 5
21 12 5 7 3 8 -6 3 -9 -5 -11 -4 -6 3 4 7 14 12 22 12 8 0 13 3 13 8 -1 4 -1
14 0 22 1 13 2 13 11 0 8 -13 10 -12 10 3 0 10 7 20 15 23 8 4 12 10 9 15 -3
5 0 9 5 9 6 0 11 7 11 16 0 9 5 12 12 8 8 -5 9 -2 5 10 -4 10 -3 15 3 11 11
-7 32 29 22 39 -3 4 1 4 11 0 12 -4 17 -1 17 10 0 9 5 16 10 16 6 0 9 6 8 13
-2 6 3 11 10 9 6 -1 11 1 11 5 -3 20 2 34 10 29 5 -4 12 7 16 24 4 17 10 28
15 25 5 -3 11 4 15 15 4 11 11 17 17 14 7 -4 8 -2 4 4 -8 14 14 52 30 52 7 0
10 8 7 21 -4 15 0 22 16 26 11 3 18 9 15 14 -3 5 1 9 8 9 11 0 10 2 0 9 -10 6
-8 10 8 14 12 3 19 10 16 15 -3 5 2 18 10 28 9 10 12 13 8 5 -5 -10 -3 -12 5
-7 9 6 9 11 0 22 -10 12 -8 16 9 20 11 4 23 13 26 21 4 9 1 12 -7 8 -6 -4 -3
1 7 9 11 9 16 16 11 16 -5 0 0 7 11 16 10 8 13 12 6 9 -11 -6 -11 -3 0 14 7
12 16 21 20 21 4 0 4 7 1 17 -4 9 -2 14 3 10 5 -3 14 6 21 19 6 13 7 22 2 18
-5 -3 -6 2 -3 10 3 9 10 13 15 10 5 -3 9 1 9 10 0 8 5 16 10 18 6 2 11 17 13
34 1 21 6 30 15 26 9 -3 12 2 10 14 -2 12 2 18 11 16 12 -3 12 0 2 11 -9 12
-9 16 0 19 7 2 14 12 16 21 1 9 5 25 6 34 2 9 9 19 15 21 7 2 12 12 12 23 0
10 5 19 11 19 6 0 9 7 5 15 -3 8 -1 15 4 15 5 0 7 11 4 25 -3 19 -1 23 11 19
11 -5 13 -2 9 10 -3 9 -2 16 4 16 9 0 24 44 27 80 0 8 7 14 15 12 11 -3 11 0
-1 14 -9 12 -9 15 -1 10 8 -5 12 2 12 23 0 18 5 31 13 31 8 0 7 4 -3 10 -12 8
-10 10 10 10 20 0 22 2 10 10 -13 9 -12 12 4 25 20 15 20 15 0 16 -10 0 -13 3
-6 6 6 2 10 9 6 14 -3 5 3 9 13 9 15 0 16 2 3 10 -12 8 -12 10 -1 10 8 0 11 3
8 7 -4 3 -1 13 6 21 10 13 9 14 -3 7 -12 -7 -13 -6 -3 7 7 8 10 18 6 21 -3 4
-1 7 6 7 7 0 9 5 6 10 -3 6 -1 10 6 10 10 0 10 3 1 12 -8 8 -8 17 -1 30 5 10
7 23 4 28 -3 6 1 7 10 4 11 -4 14 -2 9 9 -3 8 -1 18 4 21 5 3 8 17 7 31 -2 14
1 28 6 31 6 3 5 12 -3 22 -11 13 -11 15 3 10 13 -5 16 0 14 23 -1 16 2 32 7
35 5 3 6 15 2 26 -4 13 -2 18 4 14 6 -3 13 -2 16 3 4 5 1 13 -5 17 -8 5 -9 3
-4 -6 5 -9 4 -11 -4 -6 -6 4 -8 13 -4 19 10 15 15 37 14 62 0 10 4 24 8 30 15
19 21 46 9 39 -8 -5 -9 -2 -5 10 4 10 7 20 7 22 0 3 6 2 13 -1 6 -4 3 1 -7 9
-11 9 -14 16 -8 16 7 0 12 5 12 11 0 5 -6 7 -12 4 -7 -4 -5 0 5 8 12 10 15 17
7 22 -8 5 -8 11 1 22 10 12 10 16 -2 24 -10 6 -10 9 -1 9 6 0 11 3 11 8 -3 20
2 32 13 26 7 -4 8 -3 4 5 -4 6 -11 9 -16 6 -5 -3 -12 0 -16 6 -4 8 -3 9 4 5 7
-4 12 -1 12 9 0 9 4 14 9 11 10 -7 9 20 -2 30 -3 4 -2 15 3 25 7 11 7 20 0 24
-5 3 -7 12 -4 20 4 8 11 12 17 8 6 -4 7 -1 2 8 -11 17 -13 89 -2 96 4 2 7 11
7 19 0 8 -4 13 -8 10 -4 -2 -8 4 -8 15 0 13 5 18 15 14 11 -4 11 -3 2 9 -7 8
-9 21 -5 27 5 8 2 10 -7 5 -8 -4 -6 -1 4 7 17 14 17 15 0 22 -12 5 -14 9 -5
12 6 3 10 9 7 14 -3 5 -1 18 6 30 8 15 8 19 0 15 -6 -4 -11 -1 -12 6 0 7 -2
21 -4 31 -2 9 1 15 6 11 5 -3 9 0 9 5 0 6 -5 11 -12 11 -6 0 -3 7 8 16 10 8
13 13 7 9 -14 -6 -16 3 -14 45 3 69 -4 178 -12 186 -4 4 -2 13 4 21 9 9 8 13
0 13 -9 0 -9 6 0 23 6 12 8 19 4 15 -15 -14 -34 24 -22 43 8 13 8 21 -1 31 -9
11 -9 17 0 26 8 8 8 12 1 12 -5 0 -10 10 -9 23 1 12 -1 37 -5 54 -4 19 -3 30
2 27 5 -3 9 0 9 5 0 6 -7 11 -16 11 -13 0 -14 3 -5 14 7 8 8 17 3 20 -5 3 -12
17 -14 31 -3 15 -1 22 5 18 6 -4 8 0 4 11 -4 10 -7 20 -7 22 0 3 -4 3 -9 0
-11 -7 -9 13 2 32 5 7 3 12 -3 12 -6 0 -8 4 -5 10 3 5 0 10 -7 10 -9 0 -9 3 2
10 12 7 12 10 1 10 -7 0 -11 6 -7 15 3 8 0 15 -6 15 -9 0 -9 3 0 12 10 10 7
15 -10 26 -16 9 -17 12 -4 8 17 -6 18 -5 3 17 -12 19 -13 27 -4 37 9 10 9 11
-1 5 -8 -4 -13 -2 -11 6 3 25 -1 40 -9 35 -4 -3 -8 5 -9 17 -1 57 -4 68 -14
61 -8 -4 -8 -1 -2 12 11 21 -8 69 -22 56 -5 -4 -4 0 1 8 14 25 13 38 -4 52
-15 11 -15 11 -4 -4 10 -12 10 -18 1 -24 -7 -4 -9 -3 -5 4 3 6 2 14 -4 17 -8
5 -7 11 1 21 9 11 8 15 -5 20 -12 5 -13 10 -6 25 8 15 7 17 -4 13 -11 -4 -14
2 -14 27 1 18 -4 35 -10 37 -7 2 -10 8 -6 13 3 5 -1 9 -8 9 -9 0 -9 3 2 10 12
7 12 10 1 10 -8 0 -11 6 -7 16 4 9 2 13 -5 8 -7 -4 -10 -1 -7 7 3 8 -2 20 -11
27 -9 8 -10 11 -4 7 9 -4 11 -1 7 9 -3 9 -11 13 -17 9 -6 -4 -8 0 -4 10 4 10
1 17 -5 17 -6 0 -8 3 -5 7 4 3 1 13 -6 21 -10 13 -9 15 3 8 8 -4 6 0 -4 8 -11
9 -16 16 -10 16 5 0 2 5 -6 10 -13 8 -13 10 -1 10 11 0 11 3 -3 13 -9 7 -18
22 -19 35 0 12 -7 22 -14 22 -7 0 -13 5 -13 11 0 5 4 7 10 4 6 -3 7 1 4 9 -3
9 -11 13 -16 10 -6 -4 -9 -1 -6 7 3 8 -2 20 -11 27 -9 8 -10 11 -3 7 6 -3 12
-1 12 4 0 6 -7 11 -15 11 -9 0 -12 6 -9 15 4 8 1 15 -5 15 -6 0 -11 7 -11 15
0 8 -5 15 -11 15 -8 0 -7 6 2 17 10 11 10 14 2 9 -8 -4 -13 -1 -13 8 0 9 -4
16 -10 16 -5 0 -10 7 -10 16 0 8 -4 12 -10 9 -5 -3 -10 3 -10 14 0 28 -11 52
-21 45 -5 -3 -6 1 -4 9 3 7 -3 21 -14 31 -11 10 -18 23 -15 27 3 5 0 9 -6 9
-6 0 -9 4 -6 9 3 5 -1 12 -10 15 -9 4 -14 13 -10 22 3 8 2 12 -4 9 -6 -3 -10
1 -10 10 0 10 -5 13 -12 9 -6 -4 -8 -3 -4 4 3 6 0 17 -8 25 -8 8 -12 17 -9 21
3 3 -5 14 -18 25 -13 11 -20 20 -15 21 5 0 -1 9 -13 19 -12 11 -22 22 -22 25
3 20 0 26 -9 21 -6 -3 -10 3 -10 15 0 11 -7 23 -15 26 -8 4 -12 10 -9 15 5 9
-10 13 -30 10 -5 -1 -4 5 4 13 12 16 5 21 -22 17 -4 0 -5 6 -2 14 4 8 1 15 -4
15 -6 0 -13 8 -17 19 -3 10 -19 33 -35 50 -17 17 -30 33 -30 37 0 3 -7 12 -15
21 -8 8 -13 19 -10 24 4 5 0 6 -8 4 -7 -3 -22 5 -33 17 l-19 23 25 -20 25 -20
-20 24 c-11 13 -29 27 -40 32 l-20 8 20 1 c18 0 17 2 -5 13 -14 8 -24 19 -23
25 2 7 -6 12 -17 12 -13 0 -20 7 -20 20 0 11 -3 19 -8 17 -4 -1 -8 2 -9 6 -2
12 -44 47 -55 47 -5 0 -7 4 -4 9 3 5 -1 11 -9 15 -8 3 -15 12 -15 21 0 8 -5
15 -11 15 -5 0 -7 -5 -3 -12 4 -7 3 -8 -5 -4 -6 4 -9 12 -6 17 4 5 -1 12 -9
15 -9 3 -13 11 -9 17 4 6 0 8 -10 4 -9 -3 -19 -1 -23 5 -5 7 -2 8 7 3 8 -4 -2
7 -21 24 -19 17 -39 31 -43 31 -5 0 -5 5 -2 10 3 6 1 10 -5 10 -6 0 -8 5 -4
13 5 7 1 7 -12 -3 -10 -8 -16 -10 -12 -6 10 12 -12 37 -25 29 -6 -4 -8 0 -4
11 4 9 3 15 -2 12 -5 -3 -17 6 -27 19 -10 14 -24 25 -31 25 -7 0 -13 5 -13 10
0 6 -7 10 -15 10 -8 0 -14 6 -12 13 1 6 -4 11 -10 10 -7 -2 -13 4 -13 12 0 9
-6 12 -17 8 -11 -4 -14 -3 -9 5 4 7 2 12 -5 12 -6 0 -22 11 -34 24 -13 14 -26
22 -31 18 -4 -4 -5 0 -1 9 4 12 0 15 -19 13 -13 -1 -22 3 -21 9 1 9 -579 13
-2369 15 -2145 2 -2372 1 -2378 -14z"/>
<path d="M140 4930 c-9 -6 -10 -10 -3 -10 6 0 15 5 18 10 8 12 4 12 -15 0z"/>
<path d="M7925 4440 c4 -6 11 -8 16 -5 14 9 11 15 -7 15 -8 0 -12 -5 -9 -10z"/>
</g>
</svg>
